<?xml version="1.0" standalone="no"?>
<!DOCTYPE svg PUBLIC "-//W3C//DTD SVG 20010904//EN"
 "http://www.w3.org/TR/2001/REC-SVG-20010904/DTD/svg10.dtd">
<svg version="1.0" xmlns="http://www.w3.org/2000/svg"
 width="300.000000pt" height="300.000000pt" viewBox="0 0 300.000000 300.000000"
 preserveAspectRatio="xMidYMid meet">
<metadata>
Created by potrace 1.11, written by Peter Selinger 2001-2013
</metadata>
<g transform="translate(0.000000,300.000000) scale(0.100000,-0.100000)"
fill="#000000" stroke="none">
<path d="M0 2015 l0 -985 43 -1 c23 -1 87 -1 142 0 118 3 98 3 260 -1 72 -2
152 0 179 3 27 3 88 2 135 -3 47 -5 205 -10 351 -12 150 -2 295 -9 333 -16 38
-7 89 -10 113 -7 24 2 47 1 49 -4 6 -9 -30 -31 -38 -23 -3 3 -11 3 -17 -1 -8
-5 -8 -11 1 -21 12 -15 4 -64 -11 -64 -6 0 -10 18 -10 39 0 23 -5 41 -13 44
-19 7 -71 -4 -79 -17 -15 -22 -7 -33 38 -56 25 -13 48 -28 51 -33 8 -13 12
-125 6 -154 -4 -18 -10 -21 -34 -16 -17 3 -35 0 -44 -7 -10 -8 -27 -10 -52 -5
-48 10 -163 13 -163 4 0 -4 7 -12 15 -19 11 -9 13 -16 5 -24 -7 -7 -15 -5 -26
6 -14 14 -14 21 -4 53 9 27 9 40 1 48 -17 17 -13 29 6 23 33 -10 87 9 100 34
15 31 6 46 -16 26 -19 -17 -57 -21 -63 -7 -5 14 -78 25 -78 12 0 -6 -9 -20
-20 -31 -24 -24 -65 -28 -56 -5 3 8 2 15 -3 15 -5 0 -11 -9 -14 -20 -4 -15 2
-24 24 -35 29 -15 41 -55 17 -55 -8 0 -5 -7 5 -17 17 -17 19 -17 36 6 l18 24
7 -42 c5 -32 12 -44 32 -51 13 -5 30 -9 37 -7 7 1 12 -5 12 -13 0 -22 -127
-27 -145 -5 -7 9 -29 15 -54 15 -56 0 -86 10 -86 27 0 10 6 12 20 8 13 -4 32
0 48 11 50 33 53 40 32 67 -11 14 -20 30 -20 36 0 22 -35 29 -85 16 -34 -9
-54 -10 -62 -3 -15 12 -33 2 -33 -18 0 -8 -5 -14 -11 -14 -6 0 -8 8 -4 19 7
24 -28 51 -67 51 -28 0 -37 -13 -18 -25 6 -3 10 -26 10 -51 0 -44 7 -53 26
-34 6 6 23 -2 47 -24 44 -39 46 -46 12 -46 -18 0 -25 5 -25 19 0 16 -18 31
-36 31 -9 0 -3 -37 9 -49 10 -10 8 -15 -7 -27 -17 -12 -22 -12 -38 3 -10 9
-18 22 -18 29 0 14 -38 39 -47 31 -2 -3 -20 1 -39 9 -40 17 -67 8 -39 -12 10
-7 15 -20 12 -29 -9 -22 -37 -19 -37 5 0 15 -7 20 -25 20 -14 0 -25 4 -25 9 0
5 -27 7 -60 4 -51 -5 -60 -3 -60 11 0 12 10 16 38 17 101 4 152 3 210 -5 51
-7 62 -5 62 6 0 8 -9 23 -20 33 -15 13 -17 22 -10 36 14 25 13 28 -16 39 -18
7 -31 7 -40 -1 -16 -13 -142 -20 -150 -8 -3 5 -19 3 -37 -4 -18 -8 -37 -12
-44 -10 -25 9 -22 -18 4 -29 l28 -11 -30 -7 c-16 -4 -57 -8 -90 -9 -33 -1 -77
-6 -98 -12 -35 -9 -40 -8 -58 13 -19 21 -19 23 -3 35 16 12 16 13 -5 13 -12 0
-30 -4 -40 -9 -21 -12 -37 -2 -42 24 -5 25 -59 35 -59 11 0 -8 9 -18 20 -21
30 -10 24 -28 -7 -22 -36 7 -63 -8 -63 -35 0 -19 4 -20 46 -14 26 3 53 11 60
17 17 14 37 2 30 -17 -4 -9 3 -18 17 -23 20 -8 20 -10 4 -16 -9 -4 -49 -8 -87
-9 l-70 -1 0 -107 c0 -124 -2 -122 107 -120 l63 1 0 -30 c0 -32 6 -35 34 -14
17 13 17 15 4 15 -23 0 -34 20 -17 31 8 5 41 7 74 6 57 -2 60 -4 63 -30 4 -35
20 -35 24 1 3 23 8 27 33 27 23 0 29 -4 27 -18 -2 -9 2 -25 7 -35 9 -14 10
-13 11 11 0 15 3 28 8 29 4 0 64 2 133 3 69 1 131 5 138 9 7 5 11 -1 11 -13 0
-22 24 -29 35 -11 3 5 20 10 38 9 18 0 63 4 101 8 61 8 72 7 88 -9 10 -10 32
-18 52 -18 19 0 37 -6 39 -12 4 -8 6 -7 6 3 1 21 30 29 80 22 35 -5 39 -8 45
-41 3 -19 3 -39 0 -44 -8 -13 -87 2 -97 18 -8 13 -114 14 -147 0 -8 -3 -55 -2
-103 2 -92 8 -114 2 -101 -32 5 -13 -1 -16 -31 -16 -21 0 -43 -6 -49 -14 -6
-8 -27 -16 -46 -18 -30 -3 -34 0 -31 17 10 50 7 60 -19 58 -14 -1 -54 -3 -89
-5 -36 -2 -66 -8 -67 -14 -1 -5 -5 -21 -8 -36 -6 -26 -8 -27 -53 -22 -26 3
-52 12 -57 20 -12 16 -52 21 -79 9 -11 -4 -17 -3 -17 5 0 9 -13 11 -44 8 -24
-3 -51 -1 -60 4 -19 10 -70 -5 -93 -28 -19 -18 -16 -75 5 -90 16 -13 16 -13 0
-14 -11 0 -18 -8 -18 -20 0 -16 7 -20 33 -20 25 0 36 -7 49 -27 10 -16 18 -22
18 -15 0 17 57 15 64 -3 3 -8 17 -15 31 -15 30 0 31 -4 4 -31 -16 -16 -23 -18
-34 -9 -22 18 -36 3 -23 -25 11 -25 12 -25 160 -25 138 0 149 1 144 18 -8 24
9 46 28 39 12 -5 15 -14 10 -32 -5 -21 -3 -25 15 -25 17 0 21 6 21 29 0 35 26
49 36 19 4 -15 1 -26 -12 -35 -15 -11 2 -13 114 -12 l132 0 0 42 c0 32 3 38
12 29 18 -18 38 -15 60 10 18 21 19 22 15 3 -3 -11 -8 -28 -12 -37 -5 -13 -2
-18 10 -18 9 0 19 9 22 20 3 11 9 17 14 15 4 -3 6 -11 3 -18 -3 -9 14 -12 63
-12 78 0 116 -11 93 -25 -9 -6 96 -9 267 -10 218 0 282 3 286 12 3 10 9 10 24
2 24 -15 183 -17 199 -3 8 7 14 6 19 -1 3 -5 23 -10 43 -10 l37 0 -3 299 c-1
165 1 301 5 304 4 3 18 1 31 -4 20 -7 22 -13 17 -42 -4 -19 -8 -141 -10 -273
-1 -131 -4 -248 -6 -259 -4 -19 2 -20 113 -23 105 -2 117 -1 121 15 4 16 5 16
6 1 1 -16 29 -17 391 -18 l390 0 0 33 0 33 -47 -2 c-60 -3 -199 -21 -223 -29
-9 -3 -30 -1 -44 5 -27 10 -28 12 -23 78 3 37 10 90 16 117 6 28 15 105 20
173 4 67 10 124 12 126 2 2 29 1 61 -1 45 -4 57 -9 61 -25 8 -28 43 -20 39 9
-2 12 2 24 8 28 6 4 10 -4 10 -20 0 -29 24 -60 39 -50 12 7 12 5 11 299 -1
132 -4 245 -8 250 -9 15 -20 -30 -21 -86 -1 -36 -5 -48 -16 -48 -8 0 -15 -4
-15 -10 0 -5 5 -10 10 -10 6 0 10 -7 10 -15 0 -8 -6 -12 -13 -9 -7 2 -23 -8
-36 -24 -19 -26 -27 -29 -74 -27 -37 1 -52 6 -52 16 0 10 15 15 50 17 28 2 54
7 59 13 21 20 -14 29 -120 33 -60 1 -115 5 -122 7 -8 2 -19 -4 -25 -13 -9 -14
-7 -21 10 -38 24 -21 49 -26 55 -10 2 5 19 11 38 12 27 2 35 -1 38 -16 5 -24
-17 -37 -40 -25 -14 7 -20 6 -24 -5 -4 -11 -14 -13 -37 -9 -24 5 -29 3 -25 -9
4 -8 -2 -20 -14 -27 -12 -7 -18 -20 -16 -34 3 -21 0 -22 -84 -22 -65 0 -89 4
-93 14 -3 8 -14 11 -25 8 -19 -5 -20 0 -20 91 0 54 -4 102 -8 108 -4 6 -26 15
-49 19 -38 6 -42 9 -33 25 6 10 10 35 10 54 l0 36 133 1 c72 0 241 0 375 -1
l242 -1 0 980 0 981 -1500 0 -1500 0 0 -985z m439 190 c19 -11 43 -33 55 -48
20 -27 21 -40 21 -291 0 -356 8 -346 -270 -346 l-165 0 0 356 0 356 163 -4
c140 -3 167 -6 196 -23z m1111 -55 l0 -80 33 20 c58 36 145 20 181 -32 14 -19
16 -63 16 -280 l0 -258 -90 0 -90 0 0 240 c0 211 -2 241 -16 247 -9 3 -20 0
-25 -8 -5 -8 -9 -119 -9 -246 l0 -233 -90 0 -90 0 0 355 0 355 90 0 90 0 0
-80z m-220 -144 l0 -103 -39 -7 c-66 -10 -71 -26 -71 -213 l0 -163 -90 0 -90
0 0 290 0 290 90 0 90 0 0 -29 0 -29 34 34 c19 19 43 34 55 34 20 0 21 -5 21
-104z m820 82 c78 -40 82 -54 88 -328 l5 -240 -92 0 c-86 0 -91 1 -91 21 0 20
-1 20 -31 -5 -64 -54 -168 -24 -190 56 -14 53 -7 172 12 195 8 9 56 36 107 60
l93 43 -3 57 c-3 50 -6 58 -23 58 -18 0 -20 -8 -23 -62 l-3 -63 -84 0 -85 0 0
38 c0 90 45 161 114 181 62 18 158 13 206 -11z m490 6 c14 -10 31 -24 38 -32
11 -14 13 -14 25 0 55 68 171 62 208 -11 10 -19 14 -96 17 -278 l4 -253 -91 0
-91 0 0 233 c0 127 -4 238 -9 246 -5 8 -16 11 -23 8 -21 -8 -28 -81 -28 -299
l0 -188 -85 0 -85 0 -2 243 c-3 234 -4 242 -23 242 -19 0 -20 -8 -23 -242 l-2
-243 -90 0 -90 0 0 290 0 290 90 0 c85 0 90 -1 90 -21 0 -20 1 -20 31 5 36 31
101 35 139 10z m-1888 -236 c3 -235 4 -243 23 -243 19 0 20 8 23 243 l2 242
90 0 90 0 0 -290 0 -290 -90 0 c-85 0 -90 1 -90 21 0 20 -1 20 -31 -5 -45 -38
-117 -37 -161 3 l-33 29 -3 266 -3 266 90 0 91 0 2 -242z m1088 -493 c15 -18
46 -20 56 -4 9 15 155 4 165 -13 5 -7 37 -12 86 -12 l78 -1 -2 -84 c-2 -47 -8
-100 -14 -119 -6 -19 -9 -49 -6 -68 3 -18 1 -36 -4 -39 -10 -7 -13 5 -11 44 1
13 -3 42 -8 65 -6 27 -5 45 2 53 5 7 7 24 4 37 -4 18 -1 28 11 35 16 9 16 12
3 21 -8 5 -25 10 -38 10 -13 0 -20 4 -17 10 4 6 -6 10 -24 10 -16 0 -42 5 -57
10 -15 6 -29 8 -33 5 -3 -3 -7 -43 -8 -88 -2 -45 -7 -98 -12 -117 -8 -32 -10
-33 -16 -12 -4 12 -12 22 -17 22 -5 0 -6 -9 -3 -21 6 -17 4 -20 -12 -15 -29 9
-44 -37 -34 -109 9 -65 6 -85 -14 -85 -32 0 -55 89 -28 115 13 14 12 20 -12
60 -26 44 -45 51 -45 16 0 -24 -18 -40 -41 -34 -13 4 -19 14 -19 34 0 15 -4
30 -10 34 -5 3 -7 12 -4 19 3 8 1 17 -4 20 -13 8 -32 -103 -32 -187 0 -68 -6
-82 -30 -67 -9 6 -15 31 -17 77 -3 93 -12 153 -24 153 -5 0 -9 -17 -9 -37 0
-21 -4 -44 -9 -52 -9 -14 -26 209 -19 264 l3 30 79 3 c52 2 83 8 93 17 19 19
37 19 53 0z m309 -134 c-3 -6 -10 -7 -18 -2 -7 5 -10 14 -6 21 9 14 29 -2 24
-19z m-65 -49 c3 -5 2 -19 -1 -31 -4 -17 -8 -19 -14 -9 -12 18 -11 48 0 48 6
0 12 -4 15 -8z m66 -16 c0 -33 -10 -57 -21 -50 -16 9 -11 74 6 74 9 0 15 -9
15 -24z m-13 -123 c-3 -10 -5 -4 -5 12 0 17 2 24 5 18 2 -7 2 -21 0 -30z
m-314 -40 c3 -10 5 -36 4 -58 -2 -33 -6 -40 -22 -40 -17 0 -20 8 -23 58 -3 51
-1 57 17 57 11 0 22 -8 24 -17z m347 -72 c0 -13 -39 -21 -46 -10 -3 6 -3 17 0
25 4 12 10 13 26 4 11 -6 20 -15 20 -19z m-550 -21 c0 -5 -2 -10 -4 -10 -3 0
-8 5 -11 10 -3 6 -1 10 4 10 6 0 11 -4 11 -10z m478 -22 c-2 -13 -10 -24 -18
-24 -8 -1 -19 -2 -24 -3 -5 0 -3 -8 4 -16 6 -8 17 -13 23 -12 8 1 12 -23 12
-78 0 -72 -2 -80 -18 -77 -10 2 -28 -3 -40 -11 -14 -9 -30 -11 -43 -6 -20 7
-21 13 -18 86 2 43 6 95 10 116 6 35 9 38 33 33 14 -3 33 -2 41 4 26 17 42 12
38 -12z m-450 -57 c19 -12 11 -65 -10 -69 -19 -4 -34 37 -24 63 6 17 15 19 34
6z m242 -31 c0 -29 -29 -53 -46 -39 -17 14 -18 66 -1 72 19 7 47 -12 47 -33z
m-122 -2 c-2 -25 -8 -33 -23 -33 -15 0 -21 8 -23 33 -3 29 -1 32 23 32 24 0
26 -3 23 -32z m-508 -8 c0 -5 -4 -10 -10 -10 -5 0 -10 5 -10 10 0 6 5 10 10
10 6 0 10 -4 10 -10z m-550 -40 c0 -5 -20 -10 -45 -10 -25 0 -45 5 -45 10 0 6
20 10 45 10 25 0 45 -4 45 -10z m948 -69 c-3 -30 -35 -41 -44 -16 -4 9 -1 28
5 42 10 21 14 23 27 12 8 -7 14 -24 12 -38z m224 14 c5 -19 4 -38 -4 -53 -9
-18 -9 -27 0 -42 15 -24 15 -55 1 -81 -7 -13 -7 -24 -1 -32 6 -7 8 -53 6 -107
-2 -52 -5 -140 -7 -195 -6 -164 -4 -157 -26 -145 -18 9 -19 25 -19 342 1 183
3 337 5 341 10 17 37 0 45 -28z m-114 -12 c-4 -46 -34 -59 -44 -19 -8 35 1 56
26 56 18 0 21 -5 18 -37z m-1375 5 c15 1 25 -3 22 -8 -8 -12 -92 -13 -99 -1
-9 14 7 23 29 15 11 -3 33 -6 48 -6z m1575 -56 c6 -18 -15 -14 -22 4 -4 10 -1
14 6 12 6 -2 14 -10 16 -16z m519 -90 l-2 -67 65 -10 65 -10 -65 -12 c-36 -7
-90 -14 -120 -15 -54 -3 -55 -2 -58 25 -3 28 -2 28 40 25 l43 -3 -3 63 c-3 69
1 84 23 76 11 -5 14 -22 12 -72z m-2269 40 c3 -16 -2 -22 -16 -22 -22 0 -37
36 -18 44 19 8 31 0 34 -22z m1437 -12 c0 -28 -4 -35 -20 -35 -13 0 -21 8 -23
23 -5 34 5 54 25 50 13 -2 18 -13 18 -38z m110 -6 c0 -52 -29 -56 -31 -4 -2
40 3 53 19 47 7 -2 12 -21 12 -43z m572 24 c-3 -8 -6 -5 -6 6 -1 11 2 17 5 13
3 -3 4 -12 1 -19z m-797 -7 c0 -26 -10 -51 -21 -51 -5 0 -9 16 -9 35 0 24 5
35 15 35 8 0 15 -9 15 -19z m-875 -20 c3 -5 1 -12 -5 -16 -13 -8 -50 3 -50 16
0 12 47 12 55 0z m139 -7 c4 -11 1 -14 -11 -12 -9 2 -18 9 -21 16 -6 18 25 15
32 -4z m-496 -26 c18 -18 15 -25 -12 -32 -48 -12 -76 17 -33 34 30 12 31 12
45 -2z m615 5 c-7 -2 -21 -2 -30 0 -10 3 -4 5 12 5 17 0 24 -2 18 -5z m-503
-29 c0 -8 -5 -12 -10 -9 -6 4 -8 11 -5 16 9 14 15 11 15 -7z m1120 -49 c0 -12
-7 -28 -15 -35 -13 -11 -15 -6 -15 35 0 41 2 46 15 35 8 -7 15 -23 15 -35z
m109 31 c20 -23 10 -71 -14 -71 -15 0 -21 8 -23 28 -6 51 13 72 37 43z m119
-30 c2 -16 -1 -33 -7 -39 -14 -14 -17 -10 -25 36 -6 34 -5 38 11 35 11 -2 19
-14 21 -32z m-330 -65 c2 -50 -2 -88 -8 -96 -8 -10 -8 -19 0 -35 7 -12 9 -32
6 -45 -5 -19 -14 -24 -53 -27 -42 -4 -51 -2 -67 19 l-18 24 -24 -22 -23 -22
-10 25 c-11 30 -25 36 -71 28 -29 -4 -35 -9 -33 -28 2 -12 -2 -22 -8 -22 -6 0
-9 19 -7 48 3 44 5 47 33 50 17 2 35 9 40 16 6 8 34 17 63 21 49 7 52 8 52 36
0 35 24 48 48 26 19 -18 41 -10 40 13 -4 57 3 81 20 78 14 -3 17 -17 20 -87z
m-238 61 c0 -10 -66 -9 -76 1 -4 4 11 7 34 7 23 0 42 -4 42 -8z m336 -97 c3
-14 3 -32 0 -41 -7 -17 -32 -14 -30 4 1 7 2 23 3 37 1 32 19 32 27 0z m122
-11 c3 -32 -19 -61 -38 -49 -11 7 -14 68 -3 79 16 16 38 -1 41 -30z m98 4 c-3
-13 -6 -34 -6 -47 0 -20 -2 -21 -15 -11 -15 13 -21 61 -8 73 3 4 13 7 21 7 10
0 13 -7 8 -22z m668 3 c9 -14 -4 -41 -19 -41 -21 0 -28 19 -15 35 14 17 26 19
34 6z m130 -12 c-3 -5 -10 -7 -15 -3 -5 3 -7 10 -3 15 3 5 10 7 15 3 5 -3 7
-10 3 -15z m-64 3 c0 -13 -12 -22 -22 -16 -10 6 -1 24 13 24 5 0 9 -4 9 -8z
m-1520 -23 c0 -5 -18 -9 -41 -9 -22 0 -38 4 -35 9 3 5 22 9 41 9 19 0 35 -4
35 -9z m-423 -25 c8 -21 -13 -42 -28 -27 -13 13 -5 43 11 43 6 0 13 -7 17 -16z
m984 -41 c0 -5 2 -18 3 -30 3 -27 -8 -48 -21 -40 -11 7 -4 77 8 77 5 0 9 -3
10 -7z m124 -33 c0 -29 -4 -36 -22 -38 -20 -3 -23 1 -23 31 0 38 7 49 30 45
10 -2 15 -15 15 -38z m100 -2 c-8 -50 -10 -52 -24 -43 -15 9 -14 58 1 73 22
22 30 12 23 -30z m658 17 c-3 -8 -9 -15 -14 -15 -10 0 -12 24 -3 33 11 11 24
-3 17 -18z m75 14 c-2 -6 -8 -10 -13 -10 -5 0 -11 4 -13 10 -2 6 4 11 13 11 9
0 15 -5 13 -11z m-1677 -10 c-16 -6 -28 -6 -35 1 -7 7 1 10 25 9 32 0 33 -1
10 -10z m1400 -32 c-8 -8 -11 -7 -11 4 0 20 13 34 18 19 3 -7 -1 -17 -7 -23z
m-1765 13 c38 -15 19 -29 -41 -32 -45 -3 -50 -1 -53 20 -3 19 1 22 32 22 19 0
47 -5 62 -10z m1724 -16 c0 -8 -7 -14 -15 -14 -15 0 -21 21 -9 33 10 9 24 -2
24 -19z m-1920 -4 c0 -23 -103 -31 -137 -11 -14 8 -7 10 37 11 30 0 62 4 70 9
15 10 30 6 30 -9z m625 -10 c-3 -5 -10 -10 -16 -10 -5 0 -9 5 -9 10 0 6 7 10
16 10 8 0 12 -4 9 -10z m1215 -5 c0 -8 -2 -15 -4 -15 -2 0 -6 7 -10 15 -3 8
-1 15 4 15 6 0 10 -7 10 -15z m-868 -7 c-9 -9 -15 -9 -24 0 -9 9 -7 12 12 12
19 0 21 -3 12 -12z m-512 -23 c0 -8 -4 -15 -9 -15 -13 0 -22 16 -14 24 11 11
23 6 23 -9z m1725 -5 c3 -5 -1 -10 -9 -10 -9 0 -16 5 -16 10 0 6 4 10 9 10 6
0 13 -4 16 -10z m154 -6 c2 -2 -6 -4 -18 -4 -12 0 -31 -5 -42 -10 -16 -9 -19
-7 -19 9 0 17 5 19 38 14 20 -3 39 -7 41 -9z m-364 -22 c0 -31 -19 -28 -23 4
-3 18 0 25 10 22 7 -3 13 -14 13 -26z m-1260 -4 c15 -6 11 -7 -14 -3 -18 3
-40 5 -47 5 -8 0 -14 5 -14 10 0 11 38 5 75 -12z m690 11 c13 -19 -4 -59 -25
-59 -15 0 -20 7 -20 28 0 16 3 32 7 35 10 10 31 8 38 -4z m105 -24 c3 -31 1
-45 -9 -45 -11 0 -23 59 -15 72 8 13 22 -2 24 -27z m408 3 c-5 -32 -28 -35
-28 -4 0 17 5 26 16 26 10 0 14 -7 12 -22z m122 12 c0 -5 -7 -10 -15 -10 -8 0
-15 5 -15 10 0 6 7 10 15 10 8 0 15 -4 15 -10z m-760 -36 c0 -16 -16 -19 -25
-4 -8 13 4 32 16 25 5 -4 9 -13 9 -21z m557 6 c1 -11 -2 -20 -8 -20 -10 0 -12
23 -2 33 9 9 9 10 10 -13z m-642 -20 c0 -12 -16 -16 -74 -18 -97 -4 -122 7
-56 23 67 17 130 15 130 -5z m-737 -8 c2 -7 -3 -12 -12 -12 -9 0 -16 7 -16 16
0 17 22 14 28 -4z m1632 -12 c0 -16 -4 -30 -10 -30 -11 0 -14 43 -3 53 11 12
13 8 13 -23z m-64 -37 c-11 -11 -19 6 -11 24 8 17 8 17 12 0 3 -10 2 -21 -1
-24z"/>
<path d="M270 1875 c0 -243 1 -250 40 -225 12 8 16 46 18 222 3 193 2 214 -14
225 -43 31 -44 25 -44 -222z"/>
<path d="M2025 1770 c-12 -14 -20 -40 -22 -78 -4 -62 6 -88 31 -79 13 5 16 23
16 92 0 47 -2 85 -3 85 -2 0 -12 -9 -22 -20z"/>
<path d="M1836 1164 c-9 -24 -2 -26 12 -4 7 11 8 20 3 20 -5 0 -12 -7 -15 -16z"/>
<path d="M1340 234 c0 -9 7 -14 17 -12 25 5 28 28 4 28 -12 0 -21 -6 -21 -16z"/>
<path d="M630 980 c0 -5 5 -10 10 -10 6 0 10 5 10 10 0 6 -4 10 -10 10 -5 0
-10 -4 -10 -10z"/>
<path d="M715 980 c-3 -5 -1 -10 4 -10 6 0 11 5 11 10 0 6 -2 10 -4 10 -3 0
-8 -4 -11 -10z"/>
<path d="M1005 981 c-6 -11 9 -23 19 -14 9 9 7 23 -3 23 -6 0 -12 -4 -16 -9z"/>
<path d="M2370 980 c20 -13 43 -13 35 0 -3 6 -16 10 -28 10 -18 0 -19 -2 -7
-10z"/>
<path d="M2987 893 c-9 -127 -7 -325 3 -388 4 -32 8 49 9 218 0 147 -1 267 -2
267 -2 0 -7 -44 -10 -97z"/>
<path d="M586 965 c4 -8 8 -15 10 -15 2 0 4 7 4 15 0 8 -4 15 -10 15 -5 0 -7
-7 -4 -15z"/>
<path d="M2488 973 c6 -2 18 -2 25 0 6 3 1 5 -13 5 -14 0 -19 -2 -12 -5z"/>
<path d="M2580 969 c0 -5 5 -7 10 -4 6 3 10 8 10 11 0 2 -4 4 -10 4 -5 0 -10
-5 -10 -11z"/>
<path d="M441 961 c-8 -5 -10 -14 -6 -21 4 -7 2 -16 -6 -21 -11 -7 -12 -11 -1
-17 7 -5 12 -13 11 -18 -5 -26 4 -25 36 6 l34 33 -22 23 c-25 27 -27 27 -46
15z"/>
<path d="M1053 952 c-12 -9 -25 -30 -29 -45 -6 -25 -4 -28 12 -25 11 2 18 11
16 19 -1 9 9 21 22 29 14 7 22 18 19 26 -7 18 -13 17 -40 -4z"/>
<path d="M1218 963 c-21 -5 -24 -23 -4 -23 7 0 19 -7 26 -15 19 -23 30 -18 30
15 0 31 -9 34 -52 23z"/>
<path d="M130 950 c0 -5 5 -10 11 -10 5 0 7 5 4 10 -3 6 -8 10 -11 10 -2 0 -4
-4 -4 -10z"/>
<path d="M215 940 c-3 -5 1 -10 9 -10 8 0 18 5 21 10 3 6 -1 10 -9 10 -8 0
-18 -4 -21 -10z"/>
<path d="M364 937 c-7 -20 -2 -47 11 -50 14 -3 19 43 6 56 -7 7 -12 6 -17 -6z"/>
<path d="M578 931 c-7 -2 -17 -10 -21 -17 -4 -8 -19 -14 -32 -14 -16 0 -25 -6
-25 -15 0 -10 10 -15 33 -15 17 0 41 -7 51 -15 27 -20 36 -19 36 5 0 15 -7 20
-24 20 -37 0 -40 16 -7 30 39 16 66 9 67 -15 2 -42 4 -46 22 -42 20 4 72 -19
72 -33 0 -6 5 -10 11 -10 8 0 9 4 0 13 -6 8 -8 16 -5 20 3 3 0 15 -6 27 -10
18 -18 21 -42 16 -25 -5 -28 -3 -23 13 3 11 1 22 -5 26 -12 7 -84 12 -102 6z"/>
<path d="M950 930 c-12 -8 -9 -10 13 -10 15 0 27 5 27 10 0 13 -20 13 -40 0z"/>
<path d="M1365 930 c3 -5 8 -10 11 -10 2 0 4 5 4 10 0 6 -5 10 -11 10 -5 0 -7
-4 -4 -10z"/>
<path d="M758 923 c-10 -2 -18 -11 -18 -20 0 -10 6 -14 20 -10 11 3 23 0 28
-7 11 -19 72 -40 82 -30 5 5 6 23 2 39 -8 29 -9 29 -15 6 -7 -28 -31 -23 -35
7 -3 22 -22 26 -64 15z"/>
<path d="M1091 896 c-14 -16 -4 -46 14 -46 16 0 29 35 20 50 -9 14 -20 13 -34
-4z"/>
<path d="M225 890 c3 -5 8 -10 11 -10 2 0 4 5 4 10 0 6 -5 10 -11 10 -5 0 -7
-4 -4 -10z"/>
<path d="M900 887 c0 -22 22 -37 55 -37 17 0 37 -6 44 -12 11 -11 13 -10 9 1
-2 8 -17 19 -34 24 -16 5 -36 16 -45 23 -20 17 -29 18 -29 1z"/>
<path d="M285 879 c-9 -13 -6 -16 28 -24 32 -8 37 9 8 25 -25 13 -28 13 -36
-1z"/>
<path d="M0 851 c0 -17 5 -31 10 -31 6 0 10 6 10 14 0 16 24 28 44 20 8 -3 17
-1 21 5 4 7 -3 11 -17 11 -13 0 -33 3 -45 6 -20 6 -23 3 -23 -25z"/>
<path d="M1265 860 c-3 -5 1 -10 9 -10 9 0 16 5 16 10 0 6 -4 10 -9 10 -6 0
-13 -4 -16 -10z"/>
<path d="M210 826 c0 -9 5 -16 10 -16 6 0 10 4 10 9 0 6 -4 13 -10 16 -5 3
-10 -1 -10 -9z"/>
<path d="M256 819 c-31 -45 17 -73 90 -53 20 5 20 6 -5 33 -38 40 -66 47 -85
20z"/>
<path d="M1420 795 c0 -17 2 -18 24 -9 23 9 20 24 -4 24 -11 0 -20 -7 -20 -15z"/>
<path d="M1095 670 c-8 -14 3 -30 21 -30 8 0 14 9 14 20 0 21 -24 28 -35 10z"/>
<path d="M2867 432 c-20 -2 -27 -8 -25 -20 2 -13 16 -18 58 -20 96 -5 107 -22
22 -32 -38 -4 -47 -9 -47 -25 0 -12 8 -21 20 -23 30 -6 38 -18 37 -54 -1 -18
3 -40 8 -48 7 -12 13 -9 34 13 24 26 26 35 26 120 l0 92 -53 0 c-28 1 -65 -1
-80 -3z"/>
<path d="M10 420 c0 -5 7 -10 15 -10 8 0 15 5 15 10 0 6 -7 10 -15 10 -8 0
-15 -4 -15 -10z"/>
<path d="M81 388 c-10 -27 4 -49 25 -41 11 4 12 9 3 19 -6 8 -9 21 -5 29 3 8
1 15 -5 15 -5 0 -13 -10 -18 -22z"/>
<path d="M490 398 c0 -9 5 -20 10 -23 13 -8 13 5 0 25 -8 13 -10 13 -10 -2z"/>
<path d="M0 380 c0 -5 5 -10 11 -10 5 0 7 5 4 10 -3 6 -8 10 -11 10 -2 0 -4
-4 -4 -10z"/>
<path d="M2775 360 c-4 -6 7 -10 24 -10 17 0 31 5 31 10 0 6 -11 10 -24 10
-14 0 -28 -4 -31 -10z"/>
<path d="M370 300 c0 -5 5 -10 10 -10 6 0 10 5 10 10 0 6 -4 10 -10 10 -5 0
-10 -4 -10 -10z"/>
<path d="M2758 188 c-58 -19 -76 -38 -38 -38 12 0 38 9 60 20 22 11 46 20 54
20 8 0 18 5 21 10 9 15 -33 10 -97 -12z"/>
<path d="M2875 160 c-8 -13 20 -24 42 -16 15 6 15 8 3 16 -20 13 -37 12 -45 0z"/>
<path d="M5 80 c4 -6 11 -8 16 -5 14 9 11 15 -7 15 -8 0 -12 -5 -9 -10z"/>
</g>
</svg>
